<svg id="Layer_1" data-name="Layer 1" xmlns="http://www.w3.org/2000/svg" viewBox="0 0 161 73"><defs><style>.cls-1{fill:#00c79f;}.cls-2{fill:#00567e;}</style></defs><path class="cls-1" d="M79.19,1.93h14.7v2.9H82.26v7.11h8.88v2.91H82.26v7.63H93.89v2.91H79.19ZM35,4.59a9.16,9.16,0,0,0-6,16.06,6.08,6.08,0,0,1,1.84,6.18L24,51.34a.29.29,0,0,0,.28.36H45.76a.28.28,0,0,0,.27-.36L39.2,26.84a6.14,6.14,0,0,1,1.85-6.2,9.16,9.16,0,0,0-5.68-16H35m0-3.06h.48a12.22,12.22,0,0,1,7.58,21.4A3,3,0,0,0,42.15,26l7.21,25.86a2.28,2.28,0,0,1-2.19,2.89H22.86a2.28,2.28,0,0,1-2.2-2.89L27.87,26A3,3,0,0,0,27,23,12.22,12.22,0,0,1,35,1.53ZM0,25.39H3.07V14.81H15.92V25.38H19V1.93H15.92v10H3.07v-10H0Zm62.59-6.88L71.05,7.15V25.38h3V1.93H71.31L62.59,13.62,53.87,1.93H51.06V25.39h3.07V7.15Z"/><path class="cls-2" d="M52.85,31.26h9.53c4.32,0,7,2.61,7,6.48,0,3.44-2.18,5.75-5.78,6.27l7.72,10.71H67.48L59.66,44.05H55.92V54.72H52.85ZM62,41.31c2.68,0,4.3-1.22,4.3-3.57s-1.62-3.63-4.3-3.63H55.92v7.2Z"/><path class="cls-2" d="M102.54,31.26h2.54l10.41,23.46h-3.21l-3-6.84H98.34l-3,6.84H92.16Zm5.51,13.85-4.26-9.68-4.26,9.68Z"/><path class="cls-2" d="M127.75,30.87a12,12,0,0,1,10.38,5.68l-2.58,1.55A9.09,9.09,0,0,0,118.73,43a9.08,9.08,0,0,0,16.82,4.89l2.58,1.56a12.16,12.16,0,1,1-10.38-18.57Z"/><path class="cls-2" d="M141.82,31.26h3.07v10h12.6v-10h3.07V54.72h-3.07V44.15h-12.6V54.72h-3.07Z"/><path class="cls-2" d="M23,68.92V62.14H20.77a.3.3,0,0,1-.3-.29.31.31,0,0,1,.3-.3h5.16a.31.31,0,0,1,.3.3.3.3,0,0,1-.3.29H23.68v6.78a.34.34,0,0,1-.67,0Z"/><path class="cls-2" d="M31.12,69V65.43c0-1.07-.54-1.36-1.34-1.36A2.38,2.38,0,0,0,28,65V69a.3.3,0,1,1-.59,0V61.81a.3.3,0,1,1,.59,0V64.5a2.85,2.85,0,0,1,2-1,1.55,1.55,0,0,1,1.75,1.79V69a.3.3,0,0,1-.6,0Z"/><path class="cls-2" d="M35.76,63.52a2.61,2.61,0,0,1,2.62,2.78.31.31,0,0,1-.35.33H33.74a2.16,2.16,0,0,0,2.17,2.21,2.41,2.41,0,0,0,1.67-.64.22.22,0,0,1,.15,0,.23.23,0,0,1,.24.25.31.31,0,0,1-.09.2,2.94,2.94,0,0,1-2,.74,2.92,2.92,0,0,1-.1-5.83Zm-2,2.64h4a2,2,0,0,0-2-2.12A2.09,2.09,0,0,0,33.74,66.16Z"/><path class="cls-2" d="M48.19,68.93a.32.32,0,0,1-.31.32.32.32,0,0,1-.24-.09l-3.21-3.53-.85.92v2.37a.33.33,0,0,1-.32.33.34.34,0,0,1-.34-.33V61.85a.34.34,0,0,1,.34-.34.33.33,0,0,1,.32.34v3.91l3.75-4.14a.27.27,0,0,1,.23-.11.32.32,0,0,1,.32.31.36.36,0,0,1-.09.22l-2.94,3.17,3.25,3.5A.43.43,0,0,1,48.19,68.93Z"/><path class="cls-2" d="M51.5,63.52a2.61,2.61,0,0,1,2.62,2.78.31.31,0,0,1-.35.33H49.48a2.16,2.16,0,0,0,2.17,2.21,2.41,2.41,0,0,0,1.67-.64.22.22,0,0,1,.15,0,.23.23,0,0,1,.24.25.31.31,0,0,1-.09.2,2.94,2.94,0,0,1-2,.74,2.92,2.92,0,0,1-.1-5.83Zm-2,2.64h4a2,2,0,0,0-2-2.12A2.09,2.09,0,0,0,49.48,66.16Z"/><path class="cls-2" d="M55.44,70.57a.28.28,0,0,1,.27-.27.26.26,0,0,1,.19.07,2.1,2.1,0,0,0,1.52.58,1.62,1.62,0,0,0,1.77-1.78v-.83a2.81,2.81,0,0,1-2,1c-1.14,0-1.75-.52-1.75-1.79V63.93a.3.3,0,1,1,.6,0v3.46c0,1.07.54,1.37,1.34,1.37a2.43,2.43,0,0,0,1.81-.92V63.93a.3.3,0,1,1,.59,0v5.24a2.17,2.17,0,0,1-2.36,2.3,2.57,2.57,0,0,1-1.88-.68A.29.29,0,0,1,55.44,70.57Z"/><path class="cls-2" d="M66.74,68.91a.26.26,0,0,1-.14.23,1.31,1.31,0,0,1-.77.21c-.73,0-1.09-.44-1.09-1.2v-4h-.68a.26.26,0,0,1-.27-.26.27.27,0,0,1,.27-.27h.68V62.41a.31.31,0,0,1,.61,0v1.25h.88a.28.28,0,0,1,.28.27.27.27,0,0,1-.28.26h-.88v3.86c0,.45.18.76.57.76s.42-.17.56-.17A.27.27,0,0,1,66.74,68.91Z"/><path class="cls-2" d="M67.17,66.43a2.68,2.68,0,1,1,2.66,2.92A2.69,2.69,0,0,1,67.17,66.43Zm4.7,0a2.06,2.06,0,1,0-2,2.38A2.14,2.14,0,0,0,71.87,66.43Z"/><path class="cls-2" d="M82.57,68.92V65.57H77.71v3.35a.33.33,0,0,1-.32.33.34.34,0,0,1-.34-.33V61.85a.34.34,0,0,1,.34-.34.33.33,0,0,1,.32.34V65h4.86V61.85a.34.34,0,1,1,.67,0v7.07a.34.34,0,0,1-.67,0Z"/><path class="cls-2" d="M84.73,66.43a2.68,2.68,0,1,1,2.66,2.92A2.69,2.69,0,0,1,84.73,66.43Zm4.7,0a2.06,2.06,0,1,0-2,2.38A2.14,2.14,0,0,0,89.43,66.43Z"/><path class="cls-2" d="M98.66,65.21V69a.3.3,0,0,1-.6,0V65.33c0-.78-.33-1.26-1.11-1.26a2,2,0,0,0-1.59.94V69a.31.31,0,0,1-.61,0V65.33c0-.78-.32-1.26-1.11-1.26a2.11,2.11,0,0,0-1.59,1V69a.3.3,0,0,1-.6,0v-5a.3.3,0,0,1,.6,0v.57a2.43,2.43,0,0,1,1.79-1,1.39,1.39,0,0,1,1.46,1,2.31,2.31,0,0,1,1.84-1C98.17,63.52,98.66,64.1,98.66,65.21Z"/><path class="cls-2" d="M102.71,63.52a2.61,2.61,0,0,1,2.62,2.78.31.31,0,0,1-.35.33h-4.29a2.16,2.16,0,0,0,2.17,2.21,2.41,2.41,0,0,0,1.67-.64.22.22,0,0,1,.15,0,.23.23,0,0,1,.24.25.27.27,0,0,1-.09.2,2.91,2.91,0,0,1-2,.74,2.92,2.92,0,0,1-.11-5.83Zm-2,2.64h4a2,2,0,0,0-2-2.12A2.09,2.09,0,0,0,100.69,66.16Z"/><path class="cls-2" d="M113.31,61.42a4,4,0,1,1-3.72,4A3.72,3.72,0,0,1,113.31,61.42Zm0,.6c-1.86,0-3,1.41-3,3.37a3.05,3.05,0,1,0,3-3.37Z"/><path class="cls-2" d="M123.28,69l-1.48-4.52L120.3,69a.37.37,0,0,1-.71,0L118,64a.52.52,0,0,1,0-.11.29.29,0,0,1,.3-.3.31.31,0,0,1,.3.22L120,68.38l1.51-4.52a.32.32,0,0,1,.32-.23.31.31,0,0,1,.31.23l1.51,4.52L125,63.85a.29.29,0,0,1,.29-.22.3.3,0,0,1,.3.31.39.39,0,0,1,0,.13L124,69a.35.35,0,0,1-.35.26A.38.38,0,0,1,123.28,69Z"/><path class="cls-2" d="M131.07,65.33V69a.3.3,0,1,1-.59,0V65.46c0-1.07-.54-1.39-1.35-1.39a2.34,2.34,0,0,0-1.8,1V69a.3.3,0,0,1-.6,0v-5a.3.3,0,0,1,.6,0v.57a2.81,2.81,0,0,1,2-1C130.45,63.52,131.07,64.08,131.07,65.33Z"/><path class="cls-2" d="M135.11,63.52a2.61,2.61,0,0,1,2.62,2.78.31.31,0,0,1-.35.33h-4.29a2.16,2.16,0,0,0,2.17,2.21,2.41,2.41,0,0,0,1.67-.64.22.22,0,0,1,.15,0,.23.23,0,0,1,.24.25.27.27,0,0,1-.09.2,2.91,2.91,0,0,1-2,.74,2.92,2.92,0,0,1-.11-5.83Zm-2,2.64h4a2,2,0,0,0-2-2.12A2.09,2.09,0,0,0,133.09,66.16Z"/><path class="cls-2" d="M141.57,63.88a.34.34,0,0,1-.36.3,2.08,2.08,0,0,0-1.56,1V69a.3.3,0,1,1-.6,0v-5a.3.3,0,1,1,.6,0v.7a2.51,2.51,0,0,1,1.35-1,.74.74,0,0,1,.27,0A.3.3,0,0,1,141.57,63.88Z"/><path class="cls-2" d="M142.22,68.43a.28.28,0,0,1,.29-.28.23.23,0,0,1,.17.07,2.36,2.36,0,0,0,1.62.63c.93,0,1.48-.46,1.48-1.11s-.76-.92-1.55-1.12-1.95-.47-1.95-1.55c0-.86.72-1.55,2-1.55a2.55,2.55,0,0,1,1.83.67.27.27,0,0,1,.09.21.26.26,0,0,1-.26.26.22.22,0,0,1-.16-.07,2.16,2.16,0,0,0-1.5-.56c-.86,0-1.39.43-1.39,1s.72.81,1.49,1c1,.24,2,.51,2,1.69,0,.9-.69,1.63-2.08,1.63a2.69,2.69,0,0,1-2-.71A.28.28,0,0,1,142.22,68.43Z"/><path class="cls-2" d="M151.45,69V65.43c0-1.07-.54-1.36-1.35-1.36a2.36,2.36,0,0,0-1.8,1V69a.3.3,0,0,1-.6,0V61.81a.3.3,0,0,1,.6,0V64.5a2.83,2.83,0,0,1,2-1,1.55,1.55,0,0,1,1.75,1.79V69a.3.3,0,0,1-.6,0Z"/><path class="cls-2" d="M153.56,62.05a.46.46,0,1,1,.92,0,.46.46,0,0,1-.92,0Zm.16,6.9v-5a.3.3,0,1,1,.59,0v5a.3.3,0,1,1-.59,0Z"/><path class="cls-2" d="M161,66.43c0,1.77-1,2.92-2.48,2.92a2.32,2.32,0,0,1-1.93-1v2.76a.3.3,0,0,1-.6,0V63.93a.3.3,0,1,1,.6,0v.62a2.35,2.35,0,0,1,1.93-1C160,63.52,161,64.65,161,66.43Zm-.64,0c0-1.34-.71-2.36-2-2.36a2.22,2.22,0,0,0-1.82,1V67.8a2.24,2.24,0,0,0,1.82,1C159.65,68.81,160.36,67.78,160.36,66.43Z"/><path class="cls-2" d="M75,31.24h14.7v2.9H78v7.11h8.88v2.9H78v7.64H89.67v2.9H75Z"/></svg>